# File created by Blade
# Date/Time:  Thu Sep 25 15:41:58 2014
# Frame Rate: 120.000 fps
#------------------------------------------------------
:FULLY-SPECIFIED
:DEGREES
617
root -17.836873 35.917298 -1.611405 189.499825 -73.197228 -2.858280
Spine -29.319976 9.065056 1.584670
Head -89.376822 7.834235 1.283102
LeftShoulder -17.773067 24.048896 15.786976
LeftArm 154.515896 -59.898835 -103.005153
LeftForeArm 8.856065 -0.000000 27.155809
LeftHand -42.089795 -0.000000 91.713841
LeftHandThumb1 -26.253704 0.000000 33.147579
RightShoulder -16.895748 5.382721 -25.250873
RightArm 116.667874 41.056046 68.720656
RightForeArm -15.580889 -0.000000 29.592542
RightHand -7.347528 -0.000000 -79.884300
RightHandThumb1 -24.326973 -0.000000 -32.862282
LeftUpLeg -1.306691 39.983770 63.734685
LeftLeg -5.393932 -0.000000 0.000000
LeftFoot 40.103514 25.384151 -13.222658
LeftToeBase 19.194410 -0.000000 -0.000000
RightUpLeg 5.494849 -29.622362 -56.896194
RightLeg -3.979392 -0.000000 0.000000
RightFoot 45.244001 7.521248 0.099403
RightToeBase 16.183142 -0.000000 -0.000000
618
root -17.731262 35.908324 -1.627345 189.423002 -73.187252 -3.339166
Spine -28.968355 8.866188 1.496179
Head -89.331794 8.190587 1.287545
LeftShoulder -18.319884 25.344724 15.186070
LeftArm 156.866988 -59.440002 -104.631278
LeftForeArm 8.851760 -0.000000 26.862040
LeftHand -42.116216 -0.000000 91.309879
LeftHandThumb1 -26.253704 0.000000 33.147579
RightShoulder -16.505077 5.538340 -24.980652
RightArm 116.518037 41.121324 68.507957
RightForeArm -15.653628 0.000000 29.603818
RightHand -7.361350 -0.000000 -79.771857
RightHandThumb1 -24.326973 -0.000000 -32.862282
LeftUpLeg -1.537014 39.654438 63.314749
LeftLeg -5.059101 -0.000000 0.000000
LeftFoot 39.821839 25.383125 -13.475702
LeftToeBase 19.138022 -0.000000 -0.000000
RightUpLeg 5.896184 -30.574358 -56.792182
RightLeg -3.900764 -0.000000 0.000000
RightFoot 44.811190 6.913909 0.034168
RightToeBase 16.220417 -0.000000 -0.000000
619
root -17.624846 35.899596 -1.643962 189.368329 -73.272691 -3.876336
Spine -28.588893 8.674287 1.377170
Head -89.315761 8.458671 1.351390
LeftShoulder -18.802719 26.683608 14.577283
LeftArm 159.202084 -59.162285 -106.238177
LeftForeArm 8.584212 -0.000000 26.567099
LeftHand -42.119351 -0.000000 90.917565
LeftHandThumb1 -26.253704 0.000000 33.147579
RightShoulder -16.163584 5.550557 -24.701722
RightArm 116.476794 41.264288 68.364785
RightForeArm -15.779834 -0.000000 29.651077
RightHand -7.367031 -0.000000 -79.648244
RightHandThumb1 -24.326973 -0.000000 -32.862282
LeftUpLeg -1.916498 39.257328 62.784659
LeftLeg -4.698544 -0.000000 0.000000
LeftFoot 39.333905 25.506896 -14.177901
LeftToeBase 18.899509 -0.000000 -0.000000
RightUpLeg 6.435143 -31.725342 -56.744396
RightLeg -3.821064 -0.000000 0.000000
RightFoot 44.525932 5.768679 0.246384
RightToeBase 15.003186 -0.000000 -0.000000
620
root -17.514982 35.893246 -1.659617 189.135860 -73.417641 -4.310474
Spine -28.117411 8.573111 1.309356
Head -89.325905 8.565899 1.391271
LeftShoulder -19.162097 27.935631 13.974284
LeftArm 161.350781 -59.119907 -107.671457
LeftForeArm 8.105861 -0.000000 26.230046
LeftHand -42.073441 -0.000000 90.645417
LeftHandThumb1 -26.253704 0.000000 33.147579
RightShoulder -15.915646 5.583955 -24.548831
RightArm 116.339382 41.353346 68.246220
RightForeArm -15.947795 -0.000000 29.782527
RightHand -7.379988 0.000000 -79.488225
RightHandThumb1 -24.326973 -0.000000 -32.862282
LeftUpLeg -2.397659 38.838840 62.236717
LeftLeg -4.212264 -0.000000 0.000000
LeftFoot 38.656992 25.644768 -15.272203
LeftToeBase 18.183539 -0.000000 -0.000000
RightUpLeg 7.130097 -33.143631 -56.759077
RightLeg -3.767714 -0.000000 0.000000
RightFoot 44.476124 4.496016 0.850396
RightToeBase 13.970714 -0.000000 -0.000000
621
root -17.408992 35.885793 -1.677453 188.885083 -73.625660 -4.712685
Spine -27.660392 8.510169 1.212776
Head -89.318845 8.621219 1.480432
LeftShoulder -19.471864 29.138646 13.370097
LeftArm 163.443444 -59.298338 -108.967403
LeftForeArm 7.365734 -0.000000 25.843152
LeftHand -42.580428 -0.000000 90.216111
LeftHandThumb1 -26.253704 0.000000 33.147579
RightShoulder -15.744569 5.556231 -24.359635
RightArm 116.254417 41.489089 68.076239
RightForeArm -15.983997 -0.000000 29.845404
RightHand -7.214624 -0.000000 -79.307948
RightHandThumb1 -24.326973 -0.000000 -32.862282
LeftUpLeg -3.045682 38.343613 61.623536
LeftLeg -3.572128 -0.000000 0.000000
LeftFoot 37.919720 25.435636 -16.243307
LeftToeBase 17.346502 -0.000000 -0.000000
RightUpLeg 7.891533 -34.750100 -56.789585
RightLeg -3.700333 -0.000000 0.000000
RightFoot 44.409350 3.224188 1.182909
RightToeBase 12.999716 -0.000000 -0.000000
622
root -17.312967 35.879028 -1.694760 188.553164 -73.899100 -4.984217
Spine -27.236245 8.464640 1.149760
Head -89.278927 8.657757 1.551885
LeftShoulder -19.659856 30.003663 12.867442
LeftArm 165.084990 -59.908119 -109.760808
LeftForeArm 6.301526 -0.000000 25.169932
LeftHand -42.617694 -0.000000 90.157470
LeftHandThumb1 -26.253704 0.000000 33.147579
RightShoulder -15.613008 5.782199 -24.348106
RightArm 115.850189 41.495874 67.839885
RightForeArm -16.370754 -0.000000 29.948906
RightHand -7.359331 -0.000000 -79.324790
RightHandThumb1 -24.326973 -0.000000 -32.862282
LeftUpLeg -3.935210 37.608854 60.970918
LeftLeg -2.683919 -0.000000 0.000000
LeftFoot 37.080107 25.145457 -16.998729
LeftToeBase 16.523348 -0.000000 -0.000000
RightUpLeg 8.654415 -36.354517 -56.741474
RightLeg -3.622245 -0.000000 0.000000
RightFoot 43.816587 2.765174 0.729802
RightToeBase 13.457632 -0.000000 -0.000000
